<svg width="278" height="103" viewBox="0 0 278 103" fill="none" xmlns="http://www.w3.org/2000/svg">
    <path
        d="M42.3926 24.6055H25.6055V59H17.9883V24.6055H1.17188V16.9883H42.3926V24.6055ZM112.559 41.832H88.5059V34.1562H112.559V41.832ZM115.986 59H88.5059C87.4512 59 86.2988 58.8145 85.0488 58.4434C83.7988 58.0723 82.6367 57.4668 81.5625 56.627C80.5078 55.7676 79.6191 54.6641 78.8965 53.3164C78.1934 51.9492 77.8418 50.2793 77.8418 48.3066V20.8262C77.8418 20.2988 77.9395 19.8008 78.1348 19.332C78.3301 18.8633 78.5938 18.4531 78.9258 18.1016C79.2773 17.75 79.6875 17.4766 80.1562 17.2812C80.625 17.0859 81.1328 16.9883 81.6797 16.9883H115.986V24.6055H85.459V48.3066C85.459 49.3027 85.7227 50.0645 86.25 50.5918C86.7773 51.1191 87.5488 51.3828 88.5645 51.3828H115.986V59ZM195.352 55.748C195.352 56.2949 195.244 56.8027 195.029 57.2715C194.834 57.7402 194.561 58.1504 194.209 58.502C193.877 58.834 193.477 59.0977 193.008 59.293C192.539 59.4883 192.041 59.5859 191.514 59.5859C191.045 59.5859 190.566 59.498 190.078 59.3223C189.609 59.1465 189.189 58.8633 188.818 58.4727L160.986 29.4102V59H153.369V20.2402C153.369 19.459 153.584 18.7559 154.014 18.1309C154.463 17.4863 155.029 17.0078 155.713 16.6953C156.436 16.4023 157.178 16.334 157.939 16.4902C158.701 16.627 159.355 16.9785 159.902 17.5449L187.734 46.5781V16.9883H195.352V55.748ZM253.418 31.9883L266.25 16.9883H276.65L258.574 38.0527L276.533 59H266.191L253.418 44.1172L240.703 59H230.332L248.262 38.0527L230.273 16.9883H240.586L253.418 31.9883Z"
        fill="url(#paint0_linear_1429_6393)" />
    <path
        d="M53.16 83.592H55.536V94.68C55.536 97.872 52.92 100.128 49.248 100.128C47.16 100.128 45.24 99.432 44.064 98.472L45 96.696C45.912 97.56 47.4 98.064 48.888 98.064C51.552 98.064 53.16 96.792 53.16 94.632V92.832C52.176 94.248 50.64 95.088 48.768 95.088C45.504 95.088 43.128 92.64 43.128 89.184C43.128 85.728 45.504 83.304 48.768 83.304C50.64 83.304 52.224 84.192 53.16 85.584V83.592ZM49.368 93.024C51.576 93.024 53.16 91.44 53.16 89.184C53.16 86.952 51.576 85.368 49.368 85.368C47.16 85.368 45.6 86.952 45.6 89.184C45.6 91.44 47.16 93.024 49.368 93.024ZM61.5756 85.968C62.3676 84.336 64.0476 83.304 66.1836 83.304V85.368C63.6156 85.368 61.7916 86.784 61.5756 88.944V96H59.1996V83.592H61.5756V85.968ZM74.0064 96.288C70.4544 96.288 67.4544 93.312 67.4544 89.784C67.4544 86.256 70.4544 83.304 74.0064 83.304C77.5344 83.304 80.5104 86.256 80.5104 89.784C80.5104 93.312 77.5344 96.288 74.0064 96.288ZM74.0064 94.224C76.2384 94.224 78.1344 92.208 78.1344 89.784C78.1344 87.384 76.2384 85.368 74.0064 85.368C71.7264 85.368 69.8304 87.384 69.8304 89.784C69.8304 92.208 71.7264 94.224 74.0064 94.224ZM85.9189 96L81.7429 83.592H84.1669L87.0229 92.832L90.0949 83.592H92.1109L95.1829 92.832L98.0149 83.592H100.439L96.2629 96H94.0789L91.1029 86.784L88.1029 96H85.9189ZM111.889 100.32C111.049 100.32 110.185 100.128 109.537 99.792L110.065 97.968C110.545 98.232 111.097 98.352 111.577 98.352C112.345 98.352 112.873 98.112 113.281 97.392L113.905 96.072L108.577 83.592H111.121L115.105 93.384L118.873 83.592H121.345L115.873 97.128C114.985 99.36 113.665 100.296 111.889 100.32ZM129.342 96.288C125.79 96.288 122.79 93.312 122.79 89.784C122.79 86.256 125.79 83.304 129.342 83.304C132.87 83.304 135.846 86.256 135.846 89.784C135.846 93.312 132.87 96.288 129.342 96.288ZM129.342 94.224C131.574 94.224 133.47 92.208 133.47 89.784C133.47 87.384 131.574 85.368 129.342 85.368C127.062 85.368 125.166 87.384 125.166 89.784C125.166 92.208 127.062 94.224 129.342 94.224ZM147.17 83.592H149.546V96H147.17V94.2C146.426 95.424 144.914 96.288 143.234 96.288C140.498 96.288 138.578 94.296 138.578 91.488V83.592H140.906V91.08C140.906 92.928 142.082 94.224 143.762 94.224C145.49 94.224 146.978 93.096 147.17 91.632V83.592ZM155.49 85.968C156.282 84.336 157.962 83.304 160.098 83.304V85.368C157.53 85.368 155.706 86.784 155.49 88.944V96H153.114V83.592H155.49V85.968ZM174.491 83.304C177.827 83.304 179.675 85.416 179.675 88.488V96H177.347V94.296C176.435 95.592 174.731 96.288 173.219 96.288C170.579 96.288 168.635 94.752 168.635 92.328C168.635 89.856 170.867 88.2 173.603 88.2C174.827 88.2 176.147 88.464 177.347 88.872V88.488C177.347 86.928 176.627 85.272 174.155 85.272C172.931 85.272 171.731 85.752 170.651 86.304L169.787 84.552C171.563 83.664 173.123 83.304 174.491 83.304ZM173.675 94.416C175.211 94.416 176.939 93.648 177.347 92.112V90.456C176.339 90.144 175.187 89.976 173.963 89.976C172.307 89.976 170.915 90.912 170.915 92.256C170.915 93.6 172.115 94.416 173.675 94.416ZM196.983 83.304C199.575 83.304 201.447 85.296 201.447 88.104V96H199.119V88.464C199.119 86.64 198.039 85.368 196.479 85.368C194.703 85.368 193.455 86.544 193.455 88.248V96H191.127V88.464C191.127 86.64 190.047 85.368 188.487 85.368C186.711 85.368 185.463 86.544 185.463 88.248V96H183.087V83.592H185.463V85.32C186.087 84.096 187.383 83.304 188.967 83.304C190.767 83.304 192.231 84.264 192.951 85.8C193.527 84.264 195.111 83.304 196.983 83.304ZM211.749 83.304C215.013 83.304 217.461 85.992 217.461 89.784C217.461 93.6 215.013 96.288 211.749 96.288C209.829 96.288 208.293 95.376 207.333 93.84V96H204.981V79.224H207.333V85.728C208.293 84.216 209.829 83.304 211.749 83.304ZM211.173 94.224C213.453 94.224 215.061 92.376 215.061 89.784C215.061 87.192 213.453 85.368 211.173 85.368C208.941 85.368 207.333 87.192 207.333 89.784C207.333 92.376 208.941 94.224 211.173 94.224ZM221.506 81.528C220.69 81.528 220.066 80.856 220.066 80.088C220.066 79.344 220.69 78.672 221.506 78.672C222.274 78.672 222.922 79.344 222.922 80.088C222.922 80.856 222.274 81.528 221.506 81.528ZM220.306 96V83.592H222.682V96H220.306ZM231.927 93.768L232.791 95.4C232.119 95.952 231.207 96.288 230.319 96.288C228.399 96.288 227.055 94.896 227.055 92.904V85.608H225.183V83.592H227.055V80.184H229.383V83.592H232.311V85.608H229.383V92.736C229.383 93.6 229.959 94.224 230.655 94.224C231.183 94.224 231.663 94.032 231.927 93.768ZM236.388 81.528C235.572 81.528 234.948 80.856 234.948 80.088C234.948 79.344 235.572 78.672 236.388 78.672C237.156 78.672 237.804 79.344 237.804 80.088C237.804 80.856 237.156 81.528 236.388 81.528ZM235.188 96V83.592H237.564V96H235.188ZM246.881 96.288C243.329 96.288 240.329 93.312 240.329 89.784C240.329 86.256 243.329 83.304 246.881 83.304C250.409 83.304 253.385 86.256 253.385 89.784C253.385 93.312 250.409 96.288 246.881 96.288ZM246.881 94.224C249.113 94.224 251.009 92.208 251.009 89.784C251.009 87.384 249.113 85.368 246.881 85.368C244.601 85.368 242.705 87.384 242.705 89.784C242.705 92.208 244.601 94.224 246.881 94.224ZM262.478 83.304C265.214 83.304 267.134 85.296 267.134 88.104V96H264.806V88.512C264.806 86.664 263.63 85.368 261.95 85.368C260.222 85.368 258.734 86.496 258.542 87.96V96H256.166V83.592H258.542V85.392C259.286 84.168 260.798 83.304 262.478 83.304Z"
        fill="#020F54" />
    <defs>
        <linearGradient id="paint0_linear_1429_6393" x1="8.48855" y1="38" x2="285.427" y2="38" gradientUnits="userSpaceOnUse">
            <stop offset="0.682292" stop-color="#020F54" />
            <stop offset="0.994792" stop-color="#44F3F3" stop-opacity="0.6895" />
        </linearGradient>
    </defs>
</svg>
